<svg width="14" height="14" viewBox="0 0 14 14" fill="none" xmlns="http://www.w3.org/2000/svg">
<g clip-path="url(#clip0_774_13670)">
<path fill-rule="evenodd" clip-rule="evenodd" d="M11.6879 0.103017C11.996 -0.00856298 12.3296 -0.0300169 12.6494 0.0411689C12.9693 0.112355 13.2623 0.273231 13.494 0.504948C13.7257 0.736665 13.8866 1.02962 13.9578 1.34949C14.029 1.66937 14.0075 2.0029 13.8959 2.31102L10.3899 12.816C10.2977 13.0961 10.1351 13.3478 9.91757 13.5469C9.70008 13.746 9.43504 13.8859 9.14792 13.953C8.86118 14.0232 8.56109 14.0175 8.27721 13.9365C7.99333 13.8555 7.73544 13.702 7.52892 13.491L5.71592 11.69L3.82592 12.666C3.72949 12.7157 3.62179 12.7394 3.51341 12.7348C3.40504 12.7303 3.29972 12.6976 3.20781 12.64C3.11589 12.5824 3.04056 12.5018 2.98921 12.4063C2.93786 12.3107 2.91226 12.2035 2.91492 12.095L2.99492 8.96302L0.499923 6.46702C0.300805 6.26856 0.154012 6.02382 0.0726863 5.75472C-0.00863918 5.48561 -0.0219577 5.20053 0.0339233 4.92502C0.0894806 4.62471 0.223995 4.34461 0.423644 4.1135C0.623293 3.8824 0.880875 3.70862 1.16992 3.61002L1.17492 3.60802L11.6879 0.103017ZM12.3779 1.26002C12.2822 1.23863 12.1822 1.24772 12.0919 1.28602L1.57192 4.79302C1.49254 4.82032 1.42192 4.86839 1.36741 4.93223C1.31289 4.99607 1.27647 5.07334 1.26192 5.15602L1.25892 5.17002C1.24342 5.2435 1.24655 5.31969 1.26803 5.39166C1.28952 5.46362 1.32867 5.52906 1.38192 5.58202L3.33192 7.53002L9.66192 3.35302C9.76658 3.28443 9.89316 3.25757 10.0167 3.27776C10.1402 3.29795 10.2516 3.36371 10.329 3.46206C10.4063 3.5604 10.444 3.68419 10.4346 3.80897C10.4251 3.93374 10.3692 4.05044 10.2779 4.13602L4.22492 9.80002L4.19192 11.07L5.54692 10.37C5.66439 10.3091 5.79818 10.287 5.92901 10.3069C6.05984 10.3269 6.18096 10.3878 6.27492 10.481L8.41292 12.608L8.41892 12.614C8.47384 12.6709 8.54278 12.7123 8.61879 12.7341C8.69481 12.7559 8.77522 12.7572 8.85192 12.738L8.85992 12.736C8.93901 12.7179 9.01207 12.6797 9.072 12.625C9.13193 12.5704 9.17669 12.5011 9.20192 12.424V12.422L12.7129 1.90602L12.7199 1.88602C12.7439 1.82265 12.7539 1.75484 12.7492 1.68725C12.7445 1.61966 12.7253 1.55389 12.6928 1.49443C12.6603 1.43497 12.6153 1.38324 12.561 1.34278C12.5066 1.30232 12.4442 1.27409 12.3779 1.26002Z" fill="black"/>
</g>
<defs>
<clipPath id="clip0_774_13670">
<rect width="14" height="14" fill="white"/>
</clipPath>
</defs>
</svg>
