<svg width="120" height="120" viewBox="0 0 120 120" fill="none" xmlns="http://www.w3.org/2000/svg">
<path d="M80 15C93.8 15 105 26.2 105 40V80C105 93.8 93.8 105 80 105H40C26.2 105 15 93.8 15 80V40C15 26.2 26.2 15 40 15H60H80Z" stroke="black" stroke-width="8" stroke-linecap="round" stroke-linejoin="round"/>
<path d="M60 40C71.05 40 80 48.95 80 60C80 71.05 71.05 80 60 80C48.95 80 40 71.05 40 60C40 48.95 48.95 40 60 40Z" stroke="black" stroke-width="8" stroke-linecap="round" stroke-linejoin="round"/>
<path d="M85 42.5C89.1421 42.5 92.5 39.1421 92.5 35C92.5 30.8579 89.1421 27.5 85 27.5C80.8579 27.5 77.5 30.8579 77.5 35C77.5 39.1421 80.8579 42.5 85 42.5Z" fill="black"/>
</svg>
