<svg width="1738" height="545" viewBox="0 0 1738 545" fill="none" xmlns="http://www.w3.org/2000/svg">
<g clip-path="url(#clip0_754_42618)">
<rect width="1737.5" height="545" fill="black"/>
<path d="M508.65 367.125H490.672C470.829 367.125 458.109 360.51 458.109 336.597V333.544C420.118 328.795 402.819 295.893 402.819 270.622V266.891C402.819 237.042 424.019 203.63 467.437 203.63C510.685 203.63 532.054 237.042 532.054 266.891V270.622C532.054 295.893 514.755 328.795 476.934 333.544V338.802C476.934 345.925 481.344 350.165 488.467 350.165H508.65V367.125ZM467.437 315.227C494.573 315.227 511.363 293.518 511.363 268.926C511.363 242.978 494.573 222.456 467.437 222.456C440.301 222.456 423.51 242.978 423.51 268.926C423.51 293.518 440.301 315.227 467.437 315.227ZM588.401 334.053C556.517 334.053 542.101 310.139 542.101 286.904V283.682C542.101 259.938 557.025 236.533 587.384 236.533C616.894 236.533 631.649 258.411 631.649 281.816V289.787H561.096C562.453 305.899 570.763 317.262 588.401 317.262C601.121 317.262 609.601 310.987 611.467 303.355H629.953C626.053 322.35 610.28 334.053 588.401 334.053ZM587.384 253.323C572.459 253.323 563.979 262.312 561.605 276.389H612.315C610.449 261.973 602.139 253.323 587.384 253.323ZM666.114 331H646.271V239.586H662.044V267.4C664.757 248.066 676.12 238.568 695.624 238.568H698.847V256.037H692.741C675.612 256.037 666.114 265.534 666.114 282.494V331ZM734.655 333.374C714.303 333.374 701.583 322.52 701.583 303.694C701.583 284.19 716.168 274.523 740.252 274.523H761.112V272.827C761.112 261.464 755.176 255.528 743.644 255.528C734.146 255.528 720.408 256.206 712.098 256.715V239.586C719.56 238.907 730.245 238.398 738.895 238.398C766.879 238.398 780.108 248.405 780.108 273.845V331H764.335V313.531C760.264 326.59 750.258 333.374 734.655 333.374ZM739.743 318.45C750.258 318.45 760.434 313.531 761.112 297.08V287.582H739.743C727.871 287.582 721.256 294.027 721.256 303.186C721.256 312.344 727.871 318.45 739.743 318.45ZM863.336 333.714C838.744 333.714 824.498 322.69 823.819 304.373H842.136C842.645 311.157 848.581 317.941 863.506 317.941C876.226 317.941 883.858 312.514 883.858 304.882C883.858 298.098 878.939 294.197 866.389 292.84L857.4 291.992C838.575 289.957 826.872 280.968 826.872 265.365C826.872 247.218 841.627 236.872 862.658 236.872C884.197 236.872 898.613 246.709 899.291 265.195H881.144C880.635 258.242 874.53 252.814 862.658 252.814C851.295 252.814 845.189 257.902 845.189 264.856C845.189 271.131 849.259 274.693 859.605 275.88L868.594 276.728C889.115 278.933 902.175 288.261 902.175 304.373C902.175 322.011 886.402 333.714 863.336 333.714ZM968.313 332.018H954.576C931.849 332.018 919.638 323.877 919.638 298.267V254.341H904.544V239.586H919.638V212.958H938.464V239.586H968.313V254.341H938.464V299.963C938.464 309.291 943.721 314.718 953.049 314.718H968.313V332.018ZM1015.24 333.714H1014.4C992.856 333.714 980.984 319.637 980.984 292.501V239.586H1000.83V295.214C1000.83 307.934 1008.46 315.736 1020.33 315.736C1032.54 315.736 1041.19 307.256 1041.19 293.858V239.586H1061.04V331H1045.26V310.139C1041.19 325.573 1031.19 333.714 1015.24 333.714ZM1121.72 334.053C1095.77 334.053 1077.28 313.531 1077.28 287.074V283.851C1077.28 257.563 1094.92 236.702 1121.04 236.702C1134.44 236.702 1145.63 241.96 1152.41 253.154V207.192H1172.26V331H1156.48V312.174C1149.87 327.269 1136.64 334.053 1121.72 334.053ZM1125.45 316.923C1140.71 316.923 1153.09 306.069 1153.09 288.261V280.968C1153.09 263.669 1140.03 253.662 1125.28 253.662C1108.49 253.662 1097.12 266.382 1097.12 285.378C1097.12 304.712 1109 316.923 1125.45 316.923ZM1205.56 226.866C1197.42 226.866 1193.51 222.117 1193.51 215.333C1193.51 208.718 1197.42 203.8 1205.56 203.8C1213.87 203.8 1217.77 208.718 1217.77 215.333C1217.77 222.117 1213.87 226.866 1205.56 226.866ZM1218.95 331H1199.11V254.85H1185.71V239.586H1218.95V331ZM1284.65 334.053C1252.77 334.053 1235.3 310.818 1235.3 287.074V283.682C1235.3 259.429 1253.62 236.533 1284.65 236.533C1315.69 236.533 1334.01 259.429 1334.01 283.682V287.074C1334.01 310.818 1316.54 334.053 1284.65 334.053ZM1284.65 316.754C1303.48 316.754 1314.16 303.186 1314.16 285.378C1314.16 267.23 1302.97 253.832 1284.65 253.832C1266.34 253.832 1255.14 267.23 1255.14 285.378C1255.14 303.186 1265.83 316.754 1284.65 316.754Z" fill="#A0EC06"/>
<g filter="url(#filter0_f_754_42618)">
<circle cx="1700.65" cy="-35.3513" r="353.5" transform="rotate(6.94472 1700.65 -35.3513)" fill="#A0EC06" fill-opacity="0.46"/>
</g>
</g>
<defs>
<filter id="filter0_f_754_42618" x="947.113" y="-788.887" width="1507.07" height="1507.07" filterUnits="userSpaceOnUse" color-interpolation-filters="sRGB">
<feFlood flood-opacity="0" result="BackgroundImageFix"/>
<feBlend mode="normal" in="SourceGraphic" in2="BackgroundImageFix" result="shape"/>
<feGaussianBlur stdDeviation="200" result="effect1_foregroundBlur_754_42618"/>
</filter>
<clipPath id="clip0_754_42618">
<rect width="1737.5" height="545" fill="white"/>
</clipPath>
</defs>
</svg>
