<svg width="1050" height="1050" viewBox="0 0 1050 1050" fill="none" xmlns="http://www.w3.org/2000/svg">
<rect width="1049.4" height="1049.4" rx="167.904" fill="black"/>
<g clip-path="url(#clip0_754_42614)">
<path d="M902.479 494.599V544.308C902.479 571.731 880.263 593.947 852.84 593.947H803.131C775.708 593.947 753.492 616.233 753.492 643.656V693.295C753.492 720.788 731.206 743.004 703.783 743.004H654.144C626.721 743.004 604.435 765.22 604.435 792.643V842.352C604.435 869.775 582.219 891.991 554.796 891.991H505.087C477.664 891.991 455.448 869.775 455.448 842.352V792.643C455.448 765.22 433.163 743.004 405.74 743.004H356.1C328.677 743.004 306.392 720.788 306.392 693.295V643.656C306.392 616.233 284.175 593.947 256.752 593.947H207.044C179.621 593.947 157.405 571.731 157.405 544.308V494.599C157.405 467.176 179.621 444.96 207.044 444.96H256.752C284.175 444.96 306.392 422.675 306.392 395.251V345.612C306.392 318.189 328.677 295.904 356.1 295.904H405.74C433.163 295.904 455.448 273.687 455.448 246.264V196.556C455.448 169.133 477.664 146.917 505.087 146.917H554.796C582.219 146.917 604.435 169.133 604.435 196.556V246.264C604.435 273.687 582.219 295.904 554.796 295.904H505.087C477.664 295.904 455.448 318.189 455.448 345.612V395.251C455.448 422.675 433.163 444.96 405.74 444.96H356.1C328.677 444.96 306.392 467.176 306.392 494.599V544.308C306.392 571.731 328.677 593.947 356.1 593.947H405.74C433.163 593.947 455.448 616.233 455.448 643.656V693.295C455.448 720.788 477.664 743.004 505.087 743.004H554.796C582.219 743.004 604.435 720.788 604.435 693.295V643.656C604.435 616.233 626.721 593.947 654.144 593.947H703.783C731.206 593.947 753.492 571.731 753.492 544.308V494.599C753.492 467.176 731.206 444.96 703.783 444.96H654.144C626.721 444.96 604.435 467.176 604.435 494.599V544.308C604.435 571.731 582.219 593.947 554.796 593.947H505.087C477.664 593.947 455.448 571.731 455.448 544.308V494.599C455.448 467.176 477.664 444.96 505.087 444.96H554.796C582.219 444.96 604.435 422.675 604.435 395.251V345.612C604.435 318.189 626.721 295.904 654.144 295.904H703.783C731.206 295.904 753.492 318.189 753.492 345.612V395.251C753.492 422.675 775.708 444.96 803.131 444.96H852.84C880.263 444.96 902.479 467.176 902.479 494.599Z" fill="#A0EC06"/>
</g>
<defs>
<clipPath id="clip0_754_42614">
<rect width="745.074" height="745.074" fill="white" transform="translate(157.405 146.917)"/>
</clipPath>
</defs>
</svg>
