<svg width="1738" height="545" viewBox="0 0 1738 545" fill="none" xmlns="http://www.w3.org/2000/svg">
<g clip-path="url(#clip0_778_13672)">
<rect width="1737.5" height="545" fill="black"/>
<g filter="url(#filter0_f_778_13672)">
<circle cx="1700.65" cy="-35.3513" r="353.5" transform="rotate(6.94472 1700.65 -35.3513)" fill="#A0EC06" fill-opacity="0.46"/>
</g>
<g clip-path="url(#clip1_778_13672)">
<path d="M455.2 265.615V279.385C455.2 286.982 449.046 293.136 441.449 293.136H427.679C420.082 293.136 413.928 299.31 413.928 306.906V320.657C413.928 328.273 407.754 334.427 400.157 334.427H386.406C378.81 334.427 372.636 340.582 372.636 348.179V361.949C372.636 369.545 366.482 375.7 358.885 375.7H345.115C337.518 375.7 331.364 369.545 331.364 361.949V348.179C331.364 340.582 325.19 334.427 317.594 334.427H303.843C296.246 334.427 290.072 328.273 290.072 320.657V306.906C290.072 299.31 283.918 293.136 276.321 293.136H262.551C254.954 293.136 248.8 286.982 248.8 279.385V265.615C248.8 258.018 254.954 251.864 262.551 251.864H276.321C283.918 251.864 290.072 245.69 290.072 238.093V224.342C290.072 216.746 296.246 210.572 303.843 210.572H317.594C325.19 210.572 331.364 204.418 331.364 196.821V183.051C331.364 175.454 337.518 169.3 345.115 169.3H358.885C366.482 169.3 372.636 175.454 372.636 183.051V196.821C372.636 204.418 366.482 210.572 358.885 210.572H345.115C337.518 210.572 331.364 216.746 331.364 224.342V238.093C331.364 245.69 325.19 251.864 317.594 251.864H303.843C296.246 251.864 290.072 258.018 290.072 265.615V279.385C290.072 286.982 296.246 293.136 303.843 293.136H317.594C325.19 293.136 331.364 299.31 331.364 306.906V320.657C331.364 328.273 337.518 334.427 345.115 334.427H358.885C366.482 334.427 372.636 328.273 372.636 320.657V306.906C372.636 299.31 378.81 293.136 386.406 293.136H400.157C407.754 293.136 413.928 286.982 413.928 279.385V265.615C413.928 258.018 407.754 251.864 400.157 251.864H386.406C378.81 251.864 372.636 258.018 372.636 265.615V279.385C372.636 286.982 366.482 293.136 358.885 293.136H345.115C337.518 293.136 331.364 286.982 331.364 279.385V265.615C331.364 258.018 337.518 251.864 345.115 251.864H358.885C366.482 251.864 372.636 245.69 372.636 238.093V224.342C372.636 216.746 378.81 210.572 386.406 210.572H400.157C407.754 210.572 413.928 216.746 413.928 224.342V238.093C413.928 245.69 420.082 251.864 427.679 251.864H441.449C449.046 251.864 455.2 258.018 455.2 265.615Z" fill="#A0EC06"/>
</g>
<path d="M653.85 366.625H635.872C616.029 366.625 603.309 360.01 603.309 336.097V333.044C565.318 328.295 548.019 295.393 548.019 270.122V266.391C548.019 236.542 569.219 203.13 612.637 203.13C655.885 203.13 677.254 236.542 677.254 266.391V270.122C677.254 295.393 659.955 328.295 622.134 333.044V338.302C622.134 345.425 626.544 349.665 633.667 349.665H653.85V366.625ZM612.637 314.727C639.773 314.727 656.563 293.018 656.563 268.426C656.563 242.478 639.773 221.956 612.637 221.956C585.501 221.956 568.71 242.478 568.71 268.426C568.71 293.018 585.501 314.727 612.637 314.727ZM733.601 333.553C701.717 333.553 687.301 309.639 687.301 286.404V283.182C687.301 259.438 702.225 236.033 732.584 236.033C762.094 236.033 776.849 257.911 776.849 281.316V289.287H706.296C707.653 305.399 715.963 316.762 733.601 316.762C746.321 316.762 754.801 310.487 756.667 302.855H775.153C771.253 321.85 755.48 333.553 733.601 333.553ZM732.584 252.823C717.659 252.823 709.179 261.812 706.805 275.889H757.515C755.649 261.473 747.339 252.823 732.584 252.823ZM811.314 330.5H791.471V239.086H807.244V266.9C809.957 247.566 821.32 238.068 840.824 238.068H844.047V255.537H837.941C820.812 255.537 811.314 265.034 811.314 281.994V330.5ZM879.855 332.874C859.503 332.874 846.783 322.02 846.783 303.194C846.783 283.69 861.369 274.023 885.452 274.023H906.313V272.327C906.313 260.964 900.377 255.028 888.844 255.028C879.346 255.028 865.609 255.706 857.298 256.215V239.086C864.761 238.407 875.445 237.898 884.095 237.898C912.079 237.898 925.308 247.905 925.308 273.345V330.5H909.535V313.031C905.465 326.09 895.458 332.874 879.855 332.874ZM884.943 317.95C895.458 317.95 905.634 313.031 906.313 296.58V287.082H884.943C873.071 287.082 866.457 293.527 866.457 302.686C866.457 311.844 873.071 317.95 884.943 317.95ZM1008.54 333.214C983.944 333.214 969.698 322.19 969.019 303.873H987.336C987.845 310.657 993.781 317.441 1008.71 317.441C1021.43 317.441 1029.06 312.014 1029.06 304.382C1029.06 297.598 1024.14 293.697 1011.59 292.34L1002.6 291.492C983.775 289.457 972.072 280.468 972.072 264.865C972.072 246.718 986.827 236.372 1007.86 236.372C1029.4 236.372 1043.81 246.209 1044.49 264.695H1026.34C1025.84 257.742 1019.73 252.314 1007.86 252.314C996.495 252.314 990.389 257.402 990.389 264.356C990.389 270.631 994.459 274.193 1004.81 275.38L1013.79 276.228C1034.32 278.433 1047.37 287.761 1047.37 303.873C1047.37 321.511 1031.6 333.214 1008.54 333.214ZM1113.51 331.518H1099.78C1077.05 331.518 1064.84 323.377 1064.84 297.767V253.841H1049.74V239.086H1064.84V212.458H1083.66V239.086H1113.51V253.841H1083.66V299.463C1083.66 308.791 1088.92 314.218 1098.25 314.218H1113.51V331.518ZM1160.44 333.214H1159.6C1138.06 333.214 1126.18 319.137 1126.18 292.001V239.086H1146.03V294.714C1146.03 307.434 1153.66 315.236 1165.53 315.236C1177.74 315.236 1186.39 306.756 1186.39 293.358V239.086H1206.24V330.5H1190.46V309.639C1186.39 325.073 1176.39 333.214 1160.44 333.214ZM1266.92 333.553C1240.97 333.553 1222.48 313.031 1222.48 286.574V283.351C1222.48 257.063 1240.12 236.202 1266.24 236.202C1279.64 236.202 1290.83 241.46 1297.61 252.654V206.692H1317.46V330.5H1301.68V311.674C1295.07 326.769 1281.84 333.553 1266.92 333.553ZM1270.65 316.423C1285.91 316.423 1298.29 305.569 1298.29 287.761V280.468C1298.29 263.169 1285.23 253.162 1270.48 253.162C1253.69 253.162 1242.32 265.882 1242.32 284.878C1242.32 304.212 1254.2 316.423 1270.65 316.423ZM1350.76 226.366C1342.62 226.366 1338.71 221.617 1338.71 214.833C1338.71 208.218 1342.62 203.3 1350.76 203.3C1359.07 203.3 1362.97 208.218 1362.97 214.833C1362.97 221.617 1359.07 226.366 1350.76 226.366ZM1364.15 330.5H1344.31V254.35H1330.91V239.086H1364.15V330.5ZM1429.85 333.553C1397.97 333.553 1380.5 310.318 1380.5 286.574V283.182C1380.5 258.929 1398.82 236.033 1429.85 236.033C1460.89 236.033 1479.21 258.929 1479.21 283.182V286.574C1479.21 310.318 1461.74 333.553 1429.85 333.553ZM1429.85 316.254C1448.68 316.254 1459.36 302.686 1459.36 284.878C1459.36 266.73 1448.17 253.332 1429.85 253.332C1411.54 253.332 1400.34 266.73 1400.34 284.878C1400.34 302.686 1411.03 316.254 1429.85 316.254Z" fill="#A0EC06"/>
</g>
<defs>
<filter id="filter0_f_778_13672" x="947.113" y="-788.887" width="1507.07" height="1507.07" filterUnits="userSpaceOnUse" color-interpolation-filters="sRGB">
<feFlood flood-opacity="0" result="BackgroundImageFix"/>
<feBlend mode="normal" in="SourceGraphic" in2="BackgroundImageFix" result="shape"/>
<feGaussianBlur stdDeviation="200" result="effect1_foregroundBlur_778_13672"/>
</filter>
<clipPath id="clip0_778_13672">
<rect width="1737.5" height="545" fill="white"/>
</clipPath>
<clipPath id="clip1_778_13672">
<rect width="206.4" height="206.4" fill="white" transform="translate(248.8 169.3)"/>
</clipPath>
</defs>
</svg>
