<svg width="120" height="120" viewBox="0 0 120 120" fill="none" xmlns="http://www.w3.org/2000/svg">
<path fill-rule="evenodd" clip-rule="evenodd" d="M27.25 23.115C34.985 14.87 46.2 10 60.085 10C82.91 10 98.0449 23.155 102.835 41.385C103.172 42.668 102.985 44.0322 102.316 45.1776C101.647 46.323 100.55 47.1557 99.2675 47.4925C97.9845 47.8293 96.6202 47.6427 95.4749 46.9737C94.3295 46.3046 93.4968 45.208 93.16 43.925C89.525 30.11 78.38 20 60.08 20C48.65 20 40.18 23.945 34.55 29.95C28.87 36.01 25.705 44.565 25.705 54.375V65.625C25.705 75.435 28.87 83.99 34.55 90.045C40.18 96.06 48.65 100 60.08 100C68.355 100 74.92 98.08 79.96 94.975C85.035 91.85 88.06 87.705 88.91 82.95C89.885 77.47 88.685 73.71 86.62 70.995C85.4875 69.5342 84.1104 68.2806 82.55 67.29C81.875 71.035 80.67 74.57 78.85 77.34C72.14 87.535 59.31 88.41 50.85 85.035C46.27 83.21 42.345 78.215 41.125 72.86C40.3842 69.7907 40.631 66.5659 41.83 63.645C43.155 60.465 45.61 57.755 49.105 55.695C52.565 53.65 57.705 52.71 62.8 52.57C65.87 52.485 69.2 52.69 72.55 53.235C71.85 49.985 70.665 47.56 69.33 46.315C66.91 44.065 62.9 42.48 58.88 42.505C54.995 42.535 51.7 44.03 49.73 47.18C49.0271 48.3045 47.9064 49.1038 46.6143 49.402C45.3221 49.7001 43.9645 49.4728 42.84 48.77C41.7154 48.0672 40.9162 46.9464 40.618 45.6543C40.3198 44.3622 40.5471 43.0045 41.25 41.88C45.435 35.19 52.33 32.555 58.815 32.505C65.165 32.46 71.705 34.865 76.145 38.995C80.635 43.175 82.565 50.03 83.065 56.265C87.435 58.17 91.565 60.965 94.59 64.95C98.495 70.1 100.175 76.74 98.755 84.705C97.305 92.825 92.18 99.195 85.205 103.49C78.365 107.7 69.925 110 60.08 110C46.2 110 34.98 105.13 27.255 96.885C19.575 88.695 15.705 77.565 15.705 65.625V54.375C15.705 42.435 19.575 31.305 27.255 23.115H27.25ZM73 63.5C69.7386 62.7967 66.4051 62.4845 63.07 62.57C58.615 62.69 55.49 63.535 54.185 64.305C52.265 65.44 51.435 66.595 51.065 67.49C50.6702 68.4935 50.6037 69.5963 50.875 70.64C51.485 73.32 53.5 75.33 54.555 75.745C60.185 77.995 67.23 76.805 70.495 71.845C71.67 70.055 72.605 67.045 72.995 63.5H73Z" fill="black"/>
</svg>
